<svg width="1440" height="1024" viewBox="0 0 1440 1024" fill="none" xmlns="http://www.w3.org/2000/svg">
  <defs>
    <linearGradient id="bg2" x1="80" y1="40" x2="1360" y2="984" gradientUnits="userSpaceOnUse">
      <stop stop-color="#F4EFE6"/>
      <stop offset="1" stop-color="#E2D6C4"/>
    </linearGradient>
    <linearGradient id="board" x1="212" y1="104" x2="1210" y2="922" gradientUnits="userSpaceOnUse">
      <stop stop-color="#FFFCF7"/>
      <stop offset="1" stop-color="#F2E9DC"/>
    </linearGradient>
    <linearGradient id="toolbar2" x1="0" y1="0" x2="900" y2="180" gradientUnits="userSpaceOnUse">
      <stop stop-color="#23303B"/>
      <stop offset="1" stop-color="#364957"/>
    </linearGradient>
    <linearGradient id="accent2" x1="0" y1="0" x2="240" y2="120" gradientUnits="userSpaceOnUse">
      <stop stop-color="#D9762F"/>
      <stop offset="1" stop-color="#9B4E21"/>
    </linearGradient>
    <filter id="shellShadow" x="164" y="84" width="1112" height="860" filterUnits="userSpaceOnUse" color-interpolation-filters="sRGB">
      <feFlood flood-opacity="0" result="BackgroundImageFix"/>
      <feColorMatrix in="SourceAlpha" type="matrix" values="0 0 0 0 0 0 0 0 0 0 0 0 0 0 0 0 0 0 127 0" result="hardAlpha"/>
      <feOffset dy="20"/>
      <feGaussianBlur stdDeviation="24"/>
      <feColorMatrix type="matrix" values="0 0 0 0 0.17 0 0 0 0 0.13 0 0 0 0 0.09 0 0 0 0.16 0"/>
      <feBlend mode="normal" in2="BackgroundImageFix" result="effect1_dropShadow_0_1"/>
      <feBlend mode="normal" in="SourceGraphic" in2="effect1_dropShadow_0_1" result="shape"/>
    </filter>
    <filter id="modalShadow2" x="736" y="138" width="560" height="770" filterUnits="userSpaceOnUse" color-interpolation-filters="sRGB">
      <feFlood flood-opacity="0" result="BackgroundImageFix"/>
      <feColorMatrix in="SourceAlpha" type="matrix" values="0 0 0 0 0 0 0 0 0 0 0 0 0 0 0 0 0 0 127 0" result="hardAlpha"/>
      <feOffset dy="18"/>
      <feGaussianBlur stdDeviation="20"/>
      <feColorMatrix type="matrix" values="0 0 0 0 0.16 0 0 0 0 0.12 0 0 0 0 0.08 0 0 0 0.18 0"/>
      <feBlend mode="normal" in2="BackgroundImageFix" result="effect1_dropShadow_0_1"/>
      <feBlend mode="normal" in="SourceGraphic" in2="effect1_dropShadow_0_1" result="shape"/>
    </filter>
    <style>
      .eyebrow { fill:#B9A792; font-size:11px; font-family:'IBM Plex Sans','PingFang SC',sans-serif; letter-spacing:0.18em; text-transform:uppercase; }
      .title { fill:#F7F1E8; font-size:30px; font-weight:700; font-family:'PingFang SC','Microsoft YaHei',sans-serif; }
      .toolbarText { fill:#D7CBBE; font-size:13px; font-family:'PingFang SC','Microsoft YaHei',sans-serif; }
      .sectionLabel { fill:#7F705C; font-size:12px; font-weight:700; font-family:'PingFang SC','Microsoft YaHei',sans-serif; letter-spacing:0.08em; text-transform:uppercase; }
      .bodyText { fill:#1F2422; font-size:14px; font-family:'PingFang SC','Microsoft YaHei',sans-serif; }
      .bodyMeta { fill:#8D7D69; font-size:12px; font-family:'PingFang SC','Microsoft YaHei',sans-serif; }
      .metric { fill:#1F2422; font-size:22px; font-weight:700; font-family:'IBM Plex Sans','PingFang SC',sans-serif; }
      .tableHead { fill:#7B6A56; font-size:12px; font-weight:700; font-family:'PingFang SC','Microsoft YaHei',sans-serif; letter-spacing:0.08em; }
      .btnDark { fill:#FAF5EC; font-size:13px; font-weight:600; font-family:'PingFang SC','Microsoft YaHei',sans-serif; }
      .btnLight { fill:#53483D; font-size:13px; font-weight:600; font-family:'PingFang SC','Microsoft YaHei',sans-serif; }
      .modalTitle { fill:#162029; font-size:28px; font-weight:700; font-family:'PingFang SC','Microsoft YaHei',sans-serif; }
      .modalText { fill:#62574B; font-size:13px; font-family:'PingFang SC','Microsoft YaHei',sans-serif; }
      .chip { fill:#F5EFE6; font-size:12px; font-weight:600; font-family:'PingFang SC','Microsoft YaHei',sans-serif; }
    </style>
  </defs>

  <rect width="1440" height="1024" fill="url(#bg2)"/>
  <circle cx="160" cy="170" r="170" fill="#FFFFFF" fill-opacity="0.18"/>
  <circle cx="1300" cy="860" r="220" fill="#D7C0A3" fill-opacity="0.20"/>

  <g filter="url(#shellShadow)">
    <rect x="214" y="110" width="1012" height="784" rx="30" fill="url(#board)"/>
  </g>

  <rect x="214" y="110" width="1012" height="120" rx="30" fill="url(#toolbar2)"/>
  <text x="262" y="150" class="eyebrow">ERP List Page / Integrated Filter + Grid</text>
  <text x="262" y="194" class="title">候选股</text>
  <text x="262" y="214" class="toolbarText">参考 SAP Fiori / Ant Design 列表页做法：筛选和列表属于一个工作区，头部不做大摘要卡，列表是主角。</text>

  <!-- Unified work area header -->
  <text x="262" y="272" class="sectionLabel">查询与批量操作</text>
  <rect x="262" y="286" width="916" height="86" rx="18" fill="#FBF6EE" stroke="#D8C7B0"/>
  <rect x="282" y="320" width="164" height="38" rx="12" fill="#FFFFFF" stroke="#D7C7B3"/>
  <text x="298" y="343" class="bodyText">结果模型：LGBM</text>
  <rect x="460" y="320" width="164" height="38" rx="12" fill="#FFFFFF" stroke="#D7C7B3"/>
  <text x="476" y="343" class="bodyText">数据集：TEST</text>
  <rect x="638" y="320" width="210" height="38" rx="12" fill="#FFFFFF" stroke="#D7C7B3"/>
  <text x="654" y="343" class="bodyText">搜索：688295.SH / 中复神鹰</text>
  <rect x="862" y="320" width="112" height="38" rx="12" fill="#FFFFFF" stroke="#D7C7B3"/>
  <text x="878" y="343" class="bodyText">每页：30</text>
  <rect x="990" y="320" width="170" height="38" rx="12" fill="url(#accent2)"/>
  <text x="1040" y="343" class="btnDark">应用筛选</text>

  <rect x="262" y="392" width="916" height="444" rx="24" fill="#FFFDF8" stroke="#D9C8B1"/>
  <rect x="262" y="392" width="916" height="56" rx="24" fill="#F3E9DB"/>
  <text x="286" y="425" class="sectionLabel">候选列表</text>
  <rect x="956" y="406" width="92" height="28" rx="14" fill="#E7D7C4"/>
  <text x="979" y="424" class="btnLight">上一页</text>
  <rect x="1058" y="406" width="96" height="28" rx="14" fill="#182028"/>
  <text x="1084" y="424" class="btnDark">下一页</text>

  <text x="286" y="474" class="tableHead">股票</text>
  <text x="536" y="474" class="tableHead">行业</text>
  <text x="668" y="474" class="tableHead">分数</text>
  <text x="790" y="474" class="tableHead">20日动量</text>
  <text x="926" y="474" class="tableHead">未来10日收益</text>
  <text x="1072" y="474" class="tableHead">操作建议</text>

  <!-- hover row -->
  <rect x="278" y="506" width="884" height="62" rx="16" fill="#EFE3D4"/>
  <rect x="292" y="521" width="10" height="32" rx="5" fill="#D5722C"/>
  <text x="320" y="532" class="bodyText">688295.SH  中复神鹰</text>
  <text x="320" y="552" class="bodyMeta">hover 提示：点击进入详情</text>
  <text x="536" y="542" class="bodyText">新材料</text>
  <text x="684" y="542" class="metric" font-size="19">0.912</text>
  <text x="812" y="542" class="bodyText">+8.2%</text>
  <text x="938" y="542" class="bodyText">+13.4%</text>
  <text x="1072" y="542" class="bodyText">进入 AI 深挖</text>

  <rect x="278" y="580" width="884" height="54" rx="14" fill="#FFFDF8"/>
  <text x="320" y="612" class="bodyText">600487.SH  亨通光电</text>
  <text x="536" y="612" class="bodyText">通信设备</text>
  <text x="684" y="612" class="bodyText">0.887</text>
  <text x="812" y="612" class="bodyText">+7.1%</text>
  <text x="938" y="612" class="bodyText">+11.2%</text>
  <text x="1072" y="612" class="bodyText">观察回踩承接</text>

  <rect x="278" y="646" width="884" height="54" rx="14" fill="#FFFDF8"/>
  <text x="320" y="678" class="bodyText">300136.SZ  信维通信</text>
  <text x="536" y="678" class="bodyText">消费电子</text>
  <text x="684" y="678" class="bodyText">0.871</text>
  <text x="812" y="678" class="bodyText">+6.5%</text>
  <text x="938" y="678" class="bodyText">+10.8%</text>
  <text x="1072" y="678" class="bodyText">跟踪量价关系</text>

  <rect x="278" y="712" width="884" height="54" rx="14" fill="#FFFDF8"/>
  <text x="320" y="744" class="bodyText">601179.SH  中国西电</text>
  <text x="536" y="744" class="bodyText">电气设备</text>
  <text x="684" y="744" class="bodyText">0.843</text>
  <text x="812" y="744" class="bodyText">+5.8%</text>
  <text x="938" y="744" class="bodyText">+9.7%</text>
  <text x="1072" y="744" class="bodyText">高开勿追</text>

  <text x="262" y="872" class="bodyMeta">行业实践参考：Ant Design 列表页更强调“工具栏 + 表格一体化”和“返回后保持原浏览位置”；详情适合独立处理或抽屉，但列表必须是主角。</text>

  <!-- Popup detail -->
  <rect x="0" y="0" width="1440" height="1024" fill="#13110C" fill-opacity="0.18"/>
  <g filter="url(#modalShadow2)">
    <rect x="778" y="156" width="482" height="706" rx="28" fill="#FFFDF8"/>
  </g>
  <rect x="778" y="156" width="482" height="94" rx="28" fill="#F4EBDD"/>
  <text x="812" y="190" class="eyebrow">详情弹框 / Quick Inspect</text>
  <text x="812" y="224" class="modalTitle">688295.SH 中复神鹰</text>
  <text x="812" y="246" class="modalText">点列表行后打开。适合快速看单票；如果详情很复杂，仍建议切成独立详情页。</text>
  <circle cx="1216" cy="206" r="16" fill="#E6D7C5"/>
  <text x="1210" y="212" class="btnLight">×</text>

  <text x="812" y="300" class="sectionLabel">核心概览</text>
  <rect x="812" y="318" width="414" height="118" rx="18" fill="#F8F2E8"/>
  <text x="832" y="348" class="bodyMeta">综合分数</text>
  <text x="832" y="384" class="metric">0.912</text>
  <text x="980" y="348" class="bodyMeta">建议动作</text>
  <text x="980" y="384" class="bodyText">进入 AI 深挖</text>
  <text x="1110" y="348" class="bodyMeta">未来10日收益</text>
  <text x="1110" y="384" class="bodyText">+13.4%</text>

  <text x="812" y="474" class="sectionLabel">交易背景</text>
  <rect x="812" y="492" width="414" height="132" rx="18" fill="#FBF7F1" stroke="#E1D3BF"/>
  <text x="832" y="522" class="bodyMeta">行业</text>
  <text x="832" y="544" class="bodyText">新材料</text>
  <text x="980" y="522" class="bodyMeta">20日动量</text>
  <text x="980" y="544" class="bodyText">+8.2%</text>
  <text x="1110" y="522" class="bodyMeta">距20日线</text>
  <text x="1110" y="544" class="bodyText">+5.1%</text>
  <text x="832" y="584" class="bodyMeta">一句话判断</text>
  <text x="832" y="606" class="modalText">当前更适合纳入 AI 深挖池，等待回踩确认后再决定是否进入交易准备。</text>

  <text x="812" y="660" class="sectionLabel">字段预览</text>
  <rect x="812" y="678" width="414" height="48" rx="12" fill="#F1E5D5"/>
  <text x="832" y="708" class="tableHead">字段</text>
  <text x="1000" y="708" class="tableHead">内容</text>
  <rect x="812" y="730" width="414" height="40" rx="0" fill="#FFFDF8"/>
  <text x="832" y="755" class="bodyText">rank_pct</text>
  <text x="1000" y="755" class="bodyText">96.8%</text>

  <rect x="812" y="792" width="170" height="40" rx="12" fill="#182028"/>
  <text x="860" y="817" class="btnDark">发送到 AI 分析</text>
  <rect x="994" y="792" width="120" height="40" rx="12" fill="#FFFFFF" stroke="#D5C4AE"/>
  <text x="1027" y="817" class="btnLight">加入关注</text>
  <rect x="1126" y="792" width="100" height="40" rx="12" fill="#FFFFFF" stroke="#D5C4AE"/>
  <text x="1156" y="817" class="btnLight">导出</text>
</svg>
